<svg xmlns="http://www.w3.org/2000/svg" viewBox="0 0 192.57 230.06"><defs><style>.cls-1{fill:#d279e8;}</style></defs><title>a</title><g id="Layer_2" data-name="Layer 2"><g id="Layer_3" data-name="Layer 3"><circle class="cls-1" cx="11.17" cy="218.9" r="11.17" transform="translate(-9.39 0.68) rotate(-2.46)"/><circle class="cls-1" cx="23.3" cy="189.06" r="11.17" transform="translate(-8.1 1.18) rotate(-2.46)"/><circle class="cls-1" cx="34.69" cy="159.38" r="11.17" transform="translate(-6.81 1.64) rotate(-2.46)"/><circle class="cls-1" cx="46.82" cy="129.55" r="11.17" transform="translate(-5.52 2.13) rotate(-2.46)"/><circle class="cls-1" cx="80.33" cy="129.55" r="11.17" transform="translate(-5.49 3.57) rotate(-2.46)"/><circle class="cls-1" cx="113.83" cy="129.55" r="11.17" transform="translate(-5.46 5.01) rotate(-2.46)"/><circle class="cls-1" cx="60.87" cy="100.51" r="11.17" transform="translate(-4.26 2.71) rotate(-2.46)"/><circle class="cls-1" cx="73" cy="70.68" r="11.17" transform="translate(-2.97 3.2) rotate(-2.46)"/><circle class="cls-1" cx="84.39" cy="41" r="11.17" transform="translate(-1.68 3.66) rotate(-2.46)"/><circle class="cls-1" cx="96.52" cy="11.17" r="11.17" transform="translate(-0.39 4.16) rotate(-2.46)"/><circle class="cls-1" cx="181.4" cy="218.9" r="11.17" transform="translate(-45.09 390.73) rotate(-87.54)"/><circle class="cls-1" cx="169.27" cy="189.06" r="11.17" transform="translate(-26.89 350.05) rotate(-87.54)"/><circle class="cls-1" cx="157.87" cy="159.38" r="11.17" transform="translate(-8.14 310.27) rotate(-87.54)"/><circle class="cls-1" cx="145.74" cy="129.55" r="11.17" transform="translate(10.05 269.59) rotate(-87.54)"/><circle class="cls-1" cx="131.7" cy="100.51" r="11.17" transform="translate(25.62 227.78) rotate(-87.54)"/><circle class="cls-1" cx="119.57" cy="70.68" r="11.17" transform="translate(43.82 187.1) rotate(-87.54)"/><circle class="cls-1" cx="108.18" cy="41" r="11.17" transform="translate(62.57 147.32) rotate(-87.54)"/><circle class="cls-1" cx="96.05" cy="11.17" r="11.17" transform="translate(80.76 106.65) rotate(-87.54)"/></g></g></svg>