<svg xmlns="http://www.w3.org/2000/svg" viewBox="0 0 4579.2 3965.81"><defs><style>.cls-1{fill:#e8495c;}</style></defs><title>heartsvg</title><g id="Layer_2" data-name="Layer 2"><g id="Layer_1-2" data-name="Layer 1"><path class="cls-1" d="M4579.2,1350.9c-9.45,41.78-20,83.34-28.18,125.36-45.7,234.62-157.37,432.86-326.22,600.93q-912.62,908.39-1824.28,1817.73c-94.33,94-119.78,94.36-212.64,2C1572,3284.34,951.6,2676.3,342.3,2057.28,7,1716.66-75.59,1295.13,66.58,848.25,208.19,403.11,523.37,113.42,987.38,26.48c528.58-99,955.23,84.63,1268.87,524.1,10.24,14.35,21,28.34,37.45,50.56,20-27.67,36.85-51.19,54-74.47,300.95-408.76,707.08-588.14,1205.45-508,510.15,82,834.58,394.23,984.26,887.43,18.3,60.31,28.08,123.21,41.8,184.91ZM2295,3759.46c32.33-40.9,49.09-67.14,70.62-88.61q862.84-860.64,1726.68-1720.27c259.11-257.79,348.18-572.13,282.78-923.71-73.58-395.54-313.39-669.05-694.08-790.5C3291.15,112,2926.43,184.25,2631.79,481.82c-98,99-161.34,231.79-244.35,346.36-21.85,30.16-57.31,68.21-87.77,69.36-30,1.12-64.49-37-91.31-63.69-17.09-17-22.72-45.05-35.32-67.1-217-379.68-532.16-591.63-981.67-581.47-401.52,9.08-773.64,266-928.68,648.13-154.23,380.07-65.79,824.8,220.86,1109.73q634,630.22,1267.81,1260.66C1929.57,3381.85,2103.84,3563.85,2295,3759.46Z"/><path class="cls-1" d="M2295,3759.46c-191.12-195.61-365.39-377.61-543.6-555.66Q1118.94,2572,483.55,1943.14C196.9,1658.21,108.46,1213.48,262.69,833.41c155-382.09,527.16-639.05,928.68-648.13C1640.88,175.12,1956,387.06,2173,766.75c12.6,22,18.23,50.11,35.32,67.1,26.82,26.66,61.34,64.81,91.31,63.69,30.46-1.14,65.91-39.2,87.77-69.36,83-114.57,146.36-247.39,244.35-346.36C2926.43,184.25,3291.15,112,3681,236.36c380.69,121.45,620.5,395,694.08,790.5,65.4,351.58-23.66,665.92-282.78,923.71q-863.94,859.54-1726.68,1720.27C2344.06,3692.32,2327.29,3718.56,2295,3759.46Z"/></g></g></svg>