<svg xmlns="http://www.w3.org/2000/svg" viewBox="0 0 4570.14 3965.81"><defs><style>.cls-1{opacity:0.41;}.cls-2{fill:#e53855;}</style></defs><title>heart4</title><g id="Layer_2" data-name="Layer 2"><g id="Layer_1-2" data-name="Layer 1"><g class="cls-1"><path class="cls-2" d="M4551,1476.26c-25,128.13-76.45,243.72-76.45,243.72-58.83,132.22-142.84,250.76-249.77,357.2q-912.62,908.39-1824.28,1817.73c-94.33,94-119.78,94.36-212.64,2C1572,3284.34,951.6,2676.3,342.3,2057.28,7,1716.66-75.59,1295.13,66.58,848.25,208.19,403.11,523.37,113.42,987.38,26.48c528.58-99,955.23,84.63,1268.87,524.1,10.24,14.35,21,28.34,37.45,50.56,20-27.67,36.85-51.19,54-74.47,300.95-408.76,707.08-588.14,1205.45-508C3652,34.58,3893.43,77.3,4122.07,258.4,4559.3,604.74,4607.56,1187.08,4551,1476.26ZM2295,3759.46c32.33-40.9,49.09-67.14,70.62-88.61q862.84-860.64,1726.68-1720.27c259.11-257.79,348.18-572.13,282.78-923.71-73.58-395.54-313.39-669.05-694.08-790.5C3291.15,112,2926.43,184.25,2631.79,481.82c-98,99-161.34,231.79-244.35,346.36-21.85,30.16-57.31,68.21-87.77,69.36-30,1.12-64.49-37-91.31-63.69-17.09-17-22.72-45.05-35.32-67.1-217-379.68-532.16-591.63-981.67-581.47-401.52,9.08-773.64,266-928.68,648.13-154.23,380.07-65.79,824.8,220.86,1109.73q634,630.22,1267.81,1260.66C1929.57,3381.85,2103.84,3563.85,2295,3759.46Z"/><path class="cls-2" d="M2303.31,3817c-198.3-201.58-379.12-389.13-564-572.61Q1083.1,2593.25,423.83,1945.21C126.42,1651.59,34.65,1193.29,194.68,801.62c160.87-393.75,547-658.56,963.57-667.91,466.4-10.47,793.35,207.94,1018.55,599.21,13.08,22.72,18.91,51.64,36.65,69.15,27.82,27.47,63.64,66.79,94.74,65.63,31.6-1.18,68.39-40.39,91.07-71.47,86.13-118.07,151.86-254.94,253.53-356.93,305.72-306.65,684.14-381.11,1088.59-253,395,125.16,643.81,407,720.16,814.63,67.86,362.31-24.55,686.24-293.4,951.9q-896.4,885.77-1791.56,1772.77C2354.25,3747.77,2336.85,3774.82,2303.31,3817Z"/></g></g></g></svg>